<svg width="80px" height="80px" viewBox="0 0 80 80" xmlns="http://www.w3.org/2000/svg">
    <g stroke="none" stroke-width="1" fill="none" fill-rule="evenodd">
        <g transform="translate(8, 4)">
            <g stroke="#FFF">
                <path d="M7.32119706,58.3356227 L6.82233569,6.76934262 C6.82233569,5.66477312 7.71776619,4.76934262 8.82233569,4.76934262 L19.8300259,4.76934262"
                      transform="translate(13.326181, 31.552483) rotate(-13) translate(-13.326181, -31.552483) "/>
                <path d="M45,2 L45,8 C45,9.1045695 45.8954305,10 47,10 L54,10 L54,10"/>
            </g>
            <g transform="translate(41, 49)">
                <path d="M12,22 C17.5228475,22 22,17.5228475 22,12 C22,6.4771525 17.5228475,2 12,2 C6.4771525,2 2,6.4771525 2,12 C2,17.5228475 6.4771525,22 12,22 Z M12,23 C5.92486775,23 1,18.0751322 1,12 C1,5.92486775 5.92486775,1 12,1 C18.0751322,1 23,5.92486775 23,12 C23,18.0751322 18.0751322,23 12,23 Z"
                      fill="#44CC88"/>
                <path d="M16.6422745,8.65066856 L17.3577255,9.34933144 L11.1510961,15.7050998 L10.7934271,15.3596366 C8.27318543,12.9253999 6.8930231,11.5921644 6.65237018,11.3593793 L7.34762982,10.6406207 C7.57637177,10.8618841 8.83748761,12.0801353 11.1304862,14.2948995 L16.6422745,8.65066856 Z"
                      fill="#FFF"/>
            </g>
            <path d="M40,64.5 L15.5,64.5 C14.3954305,64.5 13.5,63.6045695 13.5,62.5 L13.5,3.5 C13.5,2.3954305 14.3954305,1.5 15.5,1.5 L45,1.5 L54.5,10 L54.5,48"
                  stroke="#FFF" stroke-linecap="round"/>
        </g>
        <g transform="translate(27.5, 16.5)" stroke="#FFF" stroke-linecap="round">
            <line x1="0.5" y1="31" x2="28.5" y2="31"/>
            <line x1="0.5" y1="26" x2="28.5" y2="26"/>
            <line x1="0.5" y1="21" x2="28.5" y2="21"/>
            <line x1="0.5" y1="16" x2="28.5" y2="16"/>
            <line x1="0.5" y1="11" x2="28.5" y2="11"/>
            <line x1="0.5" y1="6" x2="25.5" y2="6"/>
            <line x1="0.5" y1="1" x2="22.5" y2="1"/>
        </g>
    </g>
</svg>
