<svg width="53px" height="22px" viewBox="0 0 53 22" xmlns="http://www.w3.org/2000/svg">
    <defs>
        <linearGradient x1="100%" y1="42.1147678%" x2="-2.16502724%" y2="50%" id="linearGradient-1">
            <stop stop-color="#FE6F01" offset="0%"/>
            <stop stop-color="#B10014" offset="55.9090499%"/>
            <stop stop-color="#B41D27" offset="100%"/>
        </linearGradient>
        <linearGradient x1="50%" y1="0%" x2="61.3382962%" y2="100%" id="linearGradient-2">
                <stop stop-color="#7CB53A" offset="0%"/>
            <stop stop-color="#398336" offset="74.5755058%"/>
            <stop stop-color="#3E8B3B" offset="100%"/>
        </linearGradient>
        <linearGradient x1="50%" y1="0%" x2="62.0569283%" y2="100%" id="linearGradient-3">
            <stop stop-color="#FFC832" offset="0%"/>
            <stop stop-color="#EB702A" offset="71.8076694%"/>
            <stop stop-color="#E9742C" offset="81.4715868%"/>
            <stop stop-color="#E58032" offset="90.9378345%"/>
            <stop stop-color="#DE923B" offset="100%"/>
        </linearGradient>
        <linearGradient x1="100%" y1="98.0707565%" x2="0%" y2="0%" id="linearGradient-4">
            <stop stop-color="#43BFDD" offset="0%"/>
            <stop stop-color="#004E88" offset="100%"/>
        </linearGradient>
        <linearGradient x1="100%" y1="66.5152086%" x2="0%" y2="0%" id="linearGradient-5">
            <stop stop-color="#000000" stop-opacity="0" offset="0%"/>
            <stop stop-color="#730000" stop-opacity="0.5" offset="100%"/>
        </linearGradient>
        <linearGradient x1="0%" y1="33.3483214%" x2="100%" y2="100%" id="linearGradient-6">
            <stop stop-color="#EA410C" stop-opacity="0" offset="0%"/>
            <stop stop-color="#A50000" stop-opacity="0.5" offset="100%"/>
        </linearGradient>
        <linearGradient x1="67.0534708%" y1="0%" x2="0%" y2="100%" id="linearGradient-7">
            <stop stop-color="#003EC2" stop-opacity="0" offset="0%"/>
            <stop stop-color="#001C90" stop-opacity="0.5" offset="100%"/>
        </linearGradient>
        <linearGradient x1="30.5356725%" y1="100%" x2="100%" y2="37.7777484%" id="linearGradient-8">
            <stop stop-color="#579938" stop-opacity="0" offset="0%"/>
            <stop stop-color="#0C1F03" stop-opacity="0.5" offset="100%"/>
        </linearGradient>
    </defs>
    <path d="M10.0682953,21.3634389 L10.0682953,20.6747919 L11.5999747,20.6813346 L11.5370565,21.4308204 C11.510634,21.7453891 11.2499215,21.9871806 10.9370872,21.9871806 L10.6863445,21.9871806 C10.3449956,21.9871806 10.0682953,21.7079318 10.0682953,21.3634389 Z M20.246687,9.20974739 C20.5744502,9.12954123 20.8901773,9.38011706 20.8901773,9.72049147 L20.887207,10.3828635 L20.8847275,10.9418564 L20.8780121,12.45029 L20.8383912,21.3516882 C20.836919,21.7030886 20.5542265,21.9871597 20.206033,21.9871597 L19.9890481,21.9871597 C19.6581081,21.9871597 19.3835516,21.7291289 19.3602285,21.3959749 C19.3015462,20.557264 19.1963985,19.058918 19.1535233,18.4738327 C19.1472728,18.3884915 19.0231929,18.3885957 19.0168907,18.473937 L18.8003966,21.405437 C18.7761695,21.733482 18.5053839,21.9871597 18.1794288,21.9871597 L17.5817582,21.9871597 C17.2659278,21.9871597 17.0034331,21.7416408 16.979516,21.4237877 L16.7576495,18.4753967 C16.7514765,18.3932095 16.6322007,18.3927142 16.6253561,18.4748754 L16.3799341,21.4285839 C16.3536666,21.7443517 16.0920759,21.9871597 15.7780535,21.9871597 L15.1721953,21.9871597 C14.8569848,21.9871597 14.5947743,21.742527 14.5700823,21.4253777 L14.3414487,18.4868659 C14.3348625,18.4021502 14.2119707,18.4017853 14.2048937,18.4864749 L13.9586193,21.4289227 C13.9321968,21.7445863 13.6706578,21.9871597 13.3567904,21.9871597 L12.741324,21.9871597 C12.4252353,21.9871597 12.1626373,21.7412498 12.1390301,21.4231882 L12.0841188,20.6833991 L12.8779307,20.6867877 C13.2151987,20.6867877 13.4634877,20.3681526 13.3840135,20.0373706 L11.4053727,11.8023848 L11.3080252,11.3972095 L20.246687,9.20974739 Z" fill="url(#linearGradient-1)"/>
    <path d="M13.384011,20.0373628 L11.4053701,11.802377 L11.3080227,11.3972017 L11.1239691,10.6311898 L11.0666557,10.4420263 L1.7459135,10.3897633 C1.3989598,10.3878344 1.1171713,10.1111661 1.10182919,9.76523957 L0.618036306,9.76523957 C0.276687378,9.76523957 1.291423e-05,10.0444884 1.291423e-05,10.3889813 L1.291423e-05,10.6420334 C1.291423e-05,10.9577491 0.239571881,11.2208628 0.551295565,11.2475026 L3.47058309,11.49714 C3.5546289,11.5043344 3.55400902,11.6286187 3.46991155,11.6349789 L0.558863304,11.8550571 C0.243678606,11.8788818 1.291423e-05,12.1438983 1.291423e-05,12.4628723 L1.291423e-05,13.0840073 C1.291423e-05,13.4007656 0.240398392,13.6647135 0.553129386,13.6913794 L3.4687751,13.939922 C3.55266594,13.9470642 3.55230434,14.0710879 3.46836184,14.0777348 L0.556693713,14.3085002 C0.24243884,14.3333936 1.291423e-05,14.5980192 1.291423e-05,14.916159 L1.291423e-05,15.5275713 C1.291423e-05,15.844486 0.240579191,16.108486 0.553490984,16.1349955 L3.48024293,16.382704 C3.56165424,16.3895855 3.5611635,16.50996 3.47972636,16.5161898 L0.558217593,16.7401258 C0.243317008,16.7642633 1.291423e-05,17.0291756 1.291423e-05,17.3478889 L1.291423e-05,17.9510642 C1.291423e-05,18.2800216 0.251375487,18.5533012 0.576426657,18.5777775 L3.48114693,18.7962656 C3.56573514,18.8025998 3.56583845,18.9278225 3.48127607,18.9341306 C2.90153046,18.9774268 1.41685892,19.0835168 0.585802388,19.1427656 C0.25568884,19.1662775 1.291423e-05,19.4433889 1.291423e-05,19.7773509 L1.291423e-05,19.9963344 C1.291423e-05,20.3477348 0.281491472,20.633031 0.629684942,20.6345168 L10.0682824,20.6747893 L11.5999617,20.681332 L12.0841162,20.6833912 L12.8779281,20.6867799 C13.2151962,20.6867799 13.4634851,20.3681448 13.384011,20.0373628" fill="url(#linearGradient-2)"/>
    <path d="M11.5062768,2.60663507e-06 C11.8544444,2.60663507e-06 12.1367236,0.279251422 12.1367236,0.623718246 L12.1367236,1.54034147 L10.5548338,1.53314716 L10.6384922,0.556362796 C10.6654312,0.241741943 10.9313869,2.60663507e-06 11.2504975,2.60663507e-06 L11.5062768,2.60663507e-06 Z M9.08106184,2.17817204 L11.0598318,10.4137052 L11.0666505,10.4420133 L1.74590833,10.3897502 C1.39895463,10.3878213 1.11716613,10.1111791 1.10182403,9.76522654 C1.10133328,9.75420047 1.10112666,9.74307014 1.10117831,9.73186161 L1.15045902,0.635461137 C1.15195707,0.28408673 1.44033182,-1.04265403e-05 1.79549898,-1.04265403e-05 L2.01684888,-1.04265403e-05 C2.35440102,-1.04265403e-05 2.63451067,0.258046445 2.65827286,0.591174408 C2.71814323,1.42991137 2.82538299,2.92823128 2.8691364,3.51334265 C2.87551603,3.59868389 3.00207549,3.59855355 3.00850677,3.51321232 L3.22934011,0.581738389 C3.25405794,0.253667299 3.53029332,-1.04265403e-05 3.86278309,-1.04265403e-05 L4.47243806,-1.04265403e-05 C4.79462227,-1.04265403e-05 5.06238592,0.245534597 5.08676798,0.563361611 L5.31310278,3.51175261 C5.31953406,3.59547773 5.44092783,3.59597299 5.44803065,3.51232607 L5.69841174,0.558565403 C5.72517003,0.24279763 5.99205551,-1.04265403e-05 6.31235424,-1.04265403e-05 L6.9303518,-1.04265403e-05 C7.25191613,-1.04265403e-05 7.51939566,0.244648341 7.54455258,0.56179763 L7.77780941,3.50028341 C7.78465395,3.58656303 7.90974118,3.58695403 7.91710229,3.50070047 L8.16830989,0.55822654 C8.19527481,0.2425891 8.46205697,-1.04265403e-05 8.78222656,-1.04265403e-05 L9.41006477,-1.04265403e-05 C9.7324556,-1.04265403e-05 10.0003484,0.245899526 10.0244205,0.563987204 L10.0976442,1.53107488 L9.58714469,1.52875498 C9.24987666,1.52875498 9.00158767,1.84739005 9.08106184,2.17817204 Z" fill="url(#linearGradient-3)"/>
    <path d="M21.1905984,10.9680296 C21.5022963,10.9946694 21.7418811,11.2578092 21.7418811,11.5735249 L21.7418811,11.826577 C21.7418811,12.1710438 21.4651808,12.4502927 21.1238577,12.4502927 L20.8779966,12.4502927 L20.8847378,10.941859 L21.1905984,10.9680296 Z M18.2606076,3.28140948 C18.1760452,3.28771754 18.1761485,3.41294028 18.2607109,3.41930047 L21.165457,3.63776256 C21.4905082,3.6622128 21.7418708,3.93551848 21.7418708,4.26447583 L21.7418708,4.86765118 C21.7418708,5.18636445 21.4985667,5.45127678 21.1836403,5.47541422 L18.2621573,5.69935024 C18.1806943,5.70558009 18.1802294,5.8259545 18.2616407,5.83283602 L21.1883927,6.08057062 C21.5012787,6.10702796 21.7418708,6.37105403 21.7418708,6.68794265 L21.7418708,7.29940711 C21.7418708,7.61752085 21.4994448,7.88214645 21.18519,7.90703981 L18.2735218,8.13780521 C18.1895793,8.14442607 18.1892177,8.26844976 18.2731086,8.27561801 L21.1887543,8.52416066 C21.5014853,8.55080047 21.7418708,8.81477441 21.7418708,9.1315327 L21.7418708,9.75269384 C21.7418708,10.0716417 21.4982051,10.3366844 21.1830204,10.360509 L20.887207,10.3828479 L20.8901773,9.72047583 C20.8901773,9.38012749 20.5744502,9.12952559 20.246687,9.20975782 L11.3080252,11.3972199 L11.1239716,10.631182 L11.0666583,10.4420185 L11.0598396,10.4137104 L9.08106959,2.17817725 C9.00159542,1.84736919 9.24988441,1.52876019 9.58715244,1.52876019 L10.0976519,1.53108009 L10.5548415,1.5331654 L12.1367056,1.54033365 L21.1121987,1.58104929 C21.4603922,1.582509 21.7418708,1.86780521 21.7418708,2.21920569 L21.7418708,2.43816303 C21.7418708,2.77215118 21.486169,3.04926256 21.1560813,3.07277441 C20.3250248,3.13202322 18.8403532,3.23811327 18.2606076,3.28140948 Z" fill="url(#linearGradient-4)"/>
    <path d="M11.3080227,11.3972069 L11.4053701,11.8023822 L13.384011,20.037368 C13.4634851,20.36815 13.2151962,20.6867851 12.8779281,20.6867851 L12.0841162,20.6833964 L12.1386401,21.4178419 C12.1624798,21.7389273 12.4275573,21.9871832 12.7466162,21.9871832 L13.3515446,21.9871832 C13.6683565,21.9871832 13.9324008,21.7422637 13.9590558,21.4236547 L14.2048911,18.4864723 L11.5453346,11.339105 L11.3080227,11.3972069 Z" fill="url(#linearGradient-5)"/>
    <path d="M11.0666505,10.4420185 L11.0598318,10.4137104 L9.08106184,2.17817725 C9.00158767,1.84736919 9.24987666,1.52876019 9.58714469,1.52876019 L10.0976442,1.53108009 L10.0244205,0.563992417 C10.0003484,0.245904739 9.7324556,-5.21327014e-06 9.41006477,-5.21327014e-06 L8.78222656,-5.21327014e-06 C8.46205697,-5.21327014e-06 8.19527481,0.242594313 8.16830989,0.558205687 L8.17538689,3.50070569 L10.8077719,10.4405588 L11.0666505,10.4420185 Z" fill="url(#linearGradient-6)"/>
    <path d="M11.3080227,11.3972069 L20.2466845,9.20974479 C20.5744734,9.12953863 20.8901747,9.38011445 20.8901747,9.72048886 L20.8872044,10.3828609 L21.1830436,10.360522 C21.4982025,10.3366713 21.7418682,10.0716287 21.7418682,9.75268081 L21.7418682,9.13151967 C21.7418682,8.81478744 21.5014827,8.55081351 21.1887517,8.52414763 L18.273106,8.53626848 L11.2510192,11.1599509 L11.3080227,11.3972069 Z" fill="url(#linearGradient-7)"/>
    <path d="M11.0666505,10.4420185 L1.74590833,10.3897555 C1.39895463,10.3878265 1.11716613,10.1111844 1.10182403,9.76523175 L0.61803114,9.76523175 C0.276708041,9.76523175 7.74853802e-06,10.0444806 7.74853802e-06,10.3889735 L7.74853802e-06,10.6420256 C7.74853802e-06,10.9577412 0.239566715,11.220855 0.5512904,11.2474948 L3.47057792,11.4971583 L11.139306,10.6950967 L11.0666505,10.4420185 Z" fill="url(#linearGradient-8)"/>
    <path d="M30.6967177,5.68804947 C30.5702862,5.61484965 30.4303298,5.56859171 30.2854927,5.5521327 L27.7089673,5.5521327 L24.4337232,16.4218009 L26.9556612,16.4218009 L27.5379268,14.2985606 L31.1443344,14.2985606 L31.7266001,16.4181275 L34.248538,16.4181275 L31.1479736,6.23171656 C31.0656169,6.00254122 30.9058262,5.81002751 30.6967177,5.68804947 Z M28.1013645,12.2511848 L29.3372506,7.68957346 L30.5550682,12.2475061 L28.1013645,12.2511848 Z M40.0555053,5.5521327 L37.7721512,14.1993781 L35.4778544,5.5521327 L32.9829435,5.5521327 L36.0286315,16.4218009 L38.6840338,16.4218009 C39.148803,16.4081818 39.5561402,16.1049053 39.7053424,15.6614017 L42.5394737,5.55580613 L40.0555053,5.5521327 Z M22.2419862,21.8433832 C21.9594168,21.8308356 21.7391385,21.5854982 21.7478109,21.2929899 C21.7564832,21.0004817 21.9908811,20.7695766 22.2736625,20.7749742 C22.5564439,20.7803719 22.7824517,21.0200651 22.7806915,21.3127053 C22.7777974,21.4571763 22.719281,21.5944734 22.6181351,21.6941121 C22.5169892,21.7937508 22.3815848,21.8474847 22.2419862,21.8433832 Z M22.2437615,20.9312978 C22.024169,20.9354129 21.848867,21.1173402 21.8508946,21.3390126 C21.8529222,21.560685 22.0315222,21.7393144 22.2511526,21.7393365 C22.470783,21.7393586 22.6494183,21.5607652 22.6514897,21.3390932 C22.653497,21.2309812 22.6120875,21.1266477 22.5366848,21.049836 C22.4612821,20.9730243 22.3583002,20.9302682 22.2511747,20.9312978 L22.2437615,20.9312978 Z M22.3219183,21.6090047 L22.2177289,21.3960605 L22.1581921,21.3960605 L22.1581921,21.6090047 L22.0316764,21.6090047 L22.0316764,21.0619582 L22.2661025,21.0619582 C22.3147356,21.0589447 22.3625052,21.0756673 22.3983383,21.1082499 C22.4341714,21.1408324 22.4549567,21.1864456 22.455876,21.2345165 C22.4549423,21.2990569 22.4133666,21.3561941 22.3516867,21.3777032 L22.4707602,21.6090047 L22.3219183,21.6090047 Z M22.2734308,21.1658768 L22.1866472,21.1658768 L22.1866472,21.3081991 L22.2734308,21.3081991 C22.2979763,21.3081991 22.3206572,21.2949836 22.33293,21.2735308 C22.3452027,21.252078 22.3452027,21.2256471 22.33293,21.2041943 C22.3206572,21.1827415 22.2979763,21.1695261 22.2734308,21.1695261 L22.2734308,21.1658768 Z M52.468661,16.4999434 C52.1849536,16.4915469 51.9609334,16.24791 51.9669812,15.9543332 C51.973029,15.6607565 52.2068794,15.4272159 52.4906749,15.4313332 C52.7744705,15.4354506 53.0018993,15.6756834 52.999988,15.9693202 C52.9939331,16.2672128 52.7566257,16.5042059 52.468661,16.4999434 Z M52.4889224,15.5617695 C52.2688366,15.565883 52.0933297,15.7485336 52.0960348,15.9706487 C52.0987398,16.1927638 52.278642,16.3710065 52.4987615,16.3696607 C52.7188809,16.3683148 52.8966296,16.1878853 52.8966673,15.9657534 C52.8977173,15.8569816 52.8548503,15.7524637 52.7779328,15.6762557 C52.7010153,15.6000477 52.5966733,15.5587145 52.4889224,15.5617695 Z M52.5682957,16.2393365 L52.4649819,16.0244253 L52.4059454,16.0244253 L52.4059454,16.2393365 L52.2768031,16.2393365 L52.2768031,15.6662399 L52.5092593,15.6662399 C52.5568623,15.6631553 52.6036707,15.6798214 52.6390903,15.7124663 C52.6745099,15.7451112 52.6955462,15.7909748 52.697438,15.839677 C52.6965121,15.9059563 52.6552858,15.964633 52.5941242,15.9867216 L52.7158869,16.2204846 L52.5682957,16.2393365 Z M52.492729,15.7444494 L52.4059454,15.7444494 L52.4059454,15.8867717 L52.492729,15.8867717 C52.5125279,15.887772 52.5318657,15.8805263 52.5462207,15.8667289 C52.5605758,15.8529315 52.5686895,15.8337921 52.5686647,15.8137859 C52.5677721,15.7937364 52.5587381,15.7749425 52.5436875,15.7618246 C52.5286369,15.7487066 52.5088979,15.7424222 52.4891131,15.7444494 L52.492729,15.7444494 Z M48.9860087,11.5968095 L48.9860087,14.0919879 L46.6628078,14.0919879 C46.0708903,14.076053 45.599314,13.5871124 45.5995246,12.9895527 L45.5995246,8.94729027 C45.599314,8.3497305 46.0708903,7.86078995 46.6628078,7.84485506 L49.8635814,7.84485506 L50.5518024,5.52606635 L46.3787801,5.52606635 C44.6003784,5.5422337 43.17115,7.00924219 43.1852892,8.80397369 L43.1852892,13.1438936 C43.17115,14.9386251 44.6003784,16.4056336 46.3787801,16.4218009 L51.2436647,16.4218009 L51.2436647,10.9096249 L48.2358842,10.9096249 L48.9860087,11.5968095 Z" fill="#FFFFFF" fill-rule="nonzero"/>
</svg>
