<svg xmlns="http://www.w3.org/2000/svg" width="50" height="50" viewBox="0 0 50 50">
    <g fill="none" fill-rule="evenodd">
        <path stroke="#BBC1CC" stroke-width="1.5" d="M25 .75c-6.696 0-12.759 2.714-17.147 7.103C3.464 12.24.75 18.303.75 25c0 6.696 2.714 12.759 7.103 17.147C12.24 46.536 18.303 49.25 25 49.25c6.696 0 12.759-2.714 17.147-7.103C46.536 37.76 49.25 31.697 49.25 25c0-6.697-2.714-12.76-7.103-17.147C37.76 3.464 31.697.75 25 .75z"/>
        <path stroke="#FFF" stroke-linecap="round" stroke-linejoin="round" d="M25.999 16.83c-.552-1.563-1.448-1.557-1.998 0L22 22.5h-4.998c-1.658 0-1.9.763-.535 1.708L20.5 27l-1.605 5.134c-.494 1.583.199 2.085 1.553 1.117L25 30l4.552 3.251c1.352.966 2.046.464 1.553-1.117L29.5 27l4.033-2.792c1.363-.943 1.128-1.708-.535-1.708H28l-2.001-5.67z"/>
    </g>
</svg>
