<svg width="50px" height="50px" viewBox="0 0 50 50" xmlns="http://www.w3.org/2000/svg">
    <g fill="none">
        <rect stroke="#EE4466" x="31.5" y="13.5" width="13" height="19" rx="4"/>
        <g transform="translate(17.500000, 29.000000) scale(-1, -1) translate(-17.500000, -29.000000) translate(6.000000, 13.000000)">
            <mask id="mask-2" fill="white">
                <rect x="0" y="0" width="23" height="32"/>
            </mask>
            <path d="M-1.16937903,14.9473229 C-1.3873989,15.6028871 -1.5,16.2933982 -1.5,17 L-1.5,25 C-1.5,28.5898509 1.41014913,31.5 5,31.5 L7.76242787,31.5 C7.8640836,31.5 7.96545159,31.4976674 8.14749673,31.4958654 C8.26379933,31.5094533 8.38142042,31.5163084 8.5,31.5163084 L16.4235605,31.5163084 C18.0804147,31.5163084 19.4235605,30.1731626 19.4235605,28.5163084 C19.4235605,27.880161 19.2256573,27.2751065 18.862961,26.7696181 L18.5536504,26.3385331 L19.002313,26.0553208 C19.8680134,25.5088589 20.4035168,24.5588318 20.4035168,23.5163084 C20.4035168,22.8833276 20.2075883,22.2811125 19.8482448,21.7770668 L19.5397461,21.3443404 L19.9904563,21.0627665 C20.8628535,20.5177506 21.4035168,19.5637995 21.4035168,18.5163084 C21.4035168,17.8833276 21.2075883,17.2811125 20.8482448,16.7770668 L20.5397461,16.3443404 L20.9904563,16.0627665 C21.8628535,15.5177506 22.4035168,14.5637995 22.4035168,13.5163084 C22.4035168,11.8594541 21.060371,10.5163084 19.4035168,10.5163084 L9.59142574,10.5163084 L11.7671571,4.53853557 C12.3369152,2.97313817 11.52979,1.24225267 9.9643926,0.67249461 C8.3989952,0.102736549 6.6681097,0.909861712 6.09835164,2.47525912 L3.07367412,10.7854923 L2.94773372,10.8296134 C2.18694038,12.6958806 0.696752808,14.1862671 -1.16937903,14.9473229 Z"
                  stroke="#EE4466" mask="url(#mask-2)"/>
        </g>
        <circle stroke="#EE4466" cx="38" cy="20" r="2"/>
    </g>
</svg>
