<svg width="50px" height="50px" viewBox="0 0 50 50" xmlns="http://www.w3.org/2000/svg">
    <g stroke="none" stroke-width="1" fill="none" fill-rule="evenodd">
        <rect stroke="#979797" fill="#D8D8D8" opacity="0" x="0.5" y="0.5" width="49"
              height="49"/>
        <path d="M21.6134904,36.3013319 C20.5102203,39.122898 18.845974,41.6983876 16.729143,43.8643654"
              stroke-opacity="0.5" stroke="#BBC1CC" stroke-linecap="round"/>
        <path d="M22.5364765,45.943843 C27.4260414,39.6995448 29.6563132,31.4424578 27.9636226,23.0654399 L27.9723747,23.0625844 C27.6633581,21.5333822 26.170956,20.5437009 24.6386645,20.8520944 C23.1065414,21.160488 22.115029,22.6498812 22.4238773,24.1792514 L22.4439061,24.1758919 C23.0743942,27.2969492 23.0245746,30.3975141 22.3961062,33.3243977"
              stroke-opacity="0.5" stroke="#BBC1CC" stroke-linecap="round"/>
        <path d="M25.5425119,15.1827608 C24.7802373,15.1234673 23.9967556,15.1671396 23.2099078,15.3255357 C18.6317158,16.2468531 15.6687919,20.6970598 16.5919706,25.2663576 L16.6077917,25.2636701 C17.856313,31.4436356 15.5486188,37.5150923 11.0907682,41.3679964"
              stroke-opacity="0.5" stroke="#BBC1CC" stroke-linecap="round"/>
        <path d="M29.6117354,45.9992907 C33.6693455,39.0960448 35.2965637,30.7363279 33.5867055,22.274149 L33.5907449,22.2724693 C33.0819447,19.7549296 31.4996653,17.7266875 29.4154863,16.5670201"
              stroke-opacity="0.5" stroke="#BBC1CC" stroke-linecap="round"/>
        <path d="M36.7668464,15.5899303 C37.7692724,17.0780335 38.5012567,18.7837019 38.8786989,20.650897 C40.4103172,28.2277041 39.6475376,35.7334597 37.0712211,42.4551297"
              stroke="#EE4466" stroke-linecap="round"/>
        <path d="M19.5483304,10.8016296 C20.5177942,10.3581878 21.5534038,10.0183838 22.6440506,9.7990145 C26.9542936,8.93178352 31.2012522,10.1285723 34.3563857,12.7074213"
              stroke="#EE4466" stroke-linecap="round"/>
        <path d="M6.8619871,37.0389525 C10.043377,34.4883226 11.7254641,30.3003176 10.8628769,26.0328625 L10.8522734,26.0352141 C9.78081384,20.7328937 11.8520329,15.5266524 15.7862721,12.338239"
              stroke="#EE4466" stroke-linecap="round"/>
        <path d="M27.395265,4.05639526 C25.2759093,3.77067767 23.0739136,3.82694774 20.8597995,4.27257311 C10.1894698,6.41957027 3.28389128,16.7917401 5.43539412,27.4403891 L5.44195819,27.4387094 C5.81543741,29.2863834 5.23577882,31.1043266 4.0427997,32.388796"
              stroke-opacity="0.5" stroke="#BBC1CC" stroke-linecap="round"/>
        <path d="M44.7023827,34.593036 C45.2879321,29.8991042 45.137295,25.0328349 44.1488121,20.1406981 L44.1432579,20.141034 C42.6801417,12.8994958 37.4056525,7.39577896 30.82508,5.29027048"
              stroke-opacity="0.5" stroke="#BBC1CC" stroke-linecap="round"/>
    </g>
</svg>
